<?xml version="1.0" standalone="no"?>
<!DOCTYPE svg PUBLIC "-//W3C//DTD SVG 20010904//EN"
 "http://www.w3.org/TR/2001/REC-SVG-20010904/DTD/svg10.dtd">
<svg version="1.0" xmlns="http://www.w3.org/2000/svg"
 width="1280.000000pt" height="1280.000000pt" viewBox="0 0 1280.000000 1280.000000"
 preserveAspectRatio="xMidYMid meet">
<metadata>
Created by potrace 1.14, written by Peter Selinger 2001-2017
</metadata>
<g transform="translate(0.000000,1280.000000) scale(0.100000,-0.100000)"
fill="#000000" stroke="none">
<path d="M0 9240 l0 -1420 6400 0 6400 0 0 1420 0 1420 -6400 0 -6400 0 0
-1420z"/>
<path d="M6220 7270 l-174 -540 -567 -2 -567 -3 459 -334 c252 -183 457 -336
455 -340 -10 -18 -346 -1064 -343 -1067 2 -3 206 143 453 323 247 180 456 327
464 327 8 0 217 -147 464 -327 247 -180 451 -325 453 -323 4 3 -333 1050 -343
1067 -2 4 203 157 456 340 l460 334 -568 3 -568 2 -174 540 c-96 297 -177 540
-180 540 -3 0 -84 -243 -180 -540z"/>
<path d="M0 3550 l0 -1420 6400 0 6400 0 0 1420 0 1420 -6400 0 -6400 0 0
-1420z"/>
</g>
</svg>
